<!DOCTYPE svg PUBLIC "-//W3C//DTD SVG 1.1//EN" "http://www.w3.org/Graphics/SVG/1.1/DTD/svg11.dtd">

<!-- Uploaded to: SVG Repo, www.svgrepo.com, Transformed by: SVG Repo Mixer Tools -->
<svg fill="#acacac" height="800px" width="800px" version="1.1" id="Layer_1" xmlns="http://www.w3.org/2000/svg" xmlns:xlink="http://www.w3.org/1999/xlink" viewBox="0 0 470 470" xml:space="preserve">

<g id="SVGRepo_bgCarrier" stroke-width="0"/>

<g id="SVGRepo_tracerCarrier" stroke-linecap="round" stroke-linejoin="round"/>

<g id="SVGRepo_iconCarrier"> <g> <path d="M162.5,102.5c0-39.977,32.523-72.5,72.5-72.5s72.5,32.523,72.5,72.5V160h30v-57.5C337.5,45.981,291.519,0,235,0 S132.5,45.981,132.5,102.5V160h30V102.5z"/> <path d="M77.5,190v280h315V190H77.5z M289.094,362.881l-21.213,21.213L235,351.213l-32.881,32.881l-21.213-21.213L213.787,330 l-32.881-32.881l21.213-21.213L235,308.787l32.881-32.881l21.213,21.213L256.213,330L289.094,362.881z"/> </g> </g>

</svg>